<svg xmlns="http://www.w3.org/2000/svg" viewBox="0 0 512 512" style="height: 512px; width: 512px;"><defs><filter id="shadow-1" height="300%" width="300%" x="-100%" y="-100%"><feFlood flood-color="rgba(144, 144, 149, 1)" result="flood"></feFlood><feComposite in="flood" in2="SourceGraphic" operator="atop" result="composite"></feComposite>0<feOffset dx="4" dy="5" result="offset"></feOffset><feComposite in="SourceGraphic" in2="offset" operator="over"></feComposite></filter><linearGradient x1="0" x2="0" y1="0" y2="1" id="delapouite-direction-signs-gradient-0"><stop offset="0%" stop-color="#a6afd6" stop-opacity="1"></stop><stop offset="100%" stop-color="#1316a8" stop-opacity="1"></stop></linearGradient></defs><g class="" transform="translate(0,0)" style=""><path d="M277.3 35.11l-32.1 2.12-1 32.93 33.6.05-.5-35.1zM151.7 88.04L67.96 118.9 152 169.2l188-6.2 2.4-74.72-190.7-.24zM279.2 183l-38.3 1.3-.8 27.8 39.5 1.2-.4-30.3zm-93.1 45.6l.8 64.2 200.4.9 51.7-29.2-55.8-30.2-197.1-5.7zm51.1 82.5l-5 175.3 50.9.6-2.3-175.7-43.6-.2z" fill="#ffffff" fill-opacity="1" filter="url(#shadow-1)"></path></g></svg>