<svg xmlns="http://www.w3.org/2000/svg" viewBox="0 0 512 512" style="height: 512px; width: 512px;"><defs><filter id="shadow-1" height="300%" width="300%" x="-100%" y="-100%"><feFlood flood-color="rgba(144, 144, 149, 1)" result="flood"></feFlood><feComposite in="flood" in2="SourceGraphic" operator="atop" result="composite"></feComposite>0<feOffset dx="4" dy="5" result="offset"></feOffset><feComposite in="SourceGraphic" in2="offset" operator="over"></feComposite></filter><linearGradient x1="0" x2="0" y1="0" y2="1" id="lorc-waves-gradient-0"><stop offset="0%" stop-color="#a6d6a7" stop-opacity="1"></stop><stop offset="100%" stop-color="#1fa813" stop-opacity="1"></stop></linearGradient></defs><rect fill="url(#lorc-waves-gradient-0)" height="512" width="512" rx="32" ry="32"></rect><g class="" transform="translate(0,0)" style=""><path d="M400.9 104.8c-12 30-41 47.9-99.7 43.9-13.7-1.8-27.6-4.1-41.6-6.7-119.1-37.2-236.24-37.2-236.24 37.2 33.48-37.2 117.74-30.8 225.04-4 116.8 29.2 241.8 41.2 241.8-51.8-18.4 19.3-53.4 28.6-96.6 30.4 10-10.4 12.5-26.7 7.3-49zM147 187.5c-70.75-.3-123.64 16.1-123.64 66.1 33.48-37.2 117.74-34.8 225.04-8 116.8 29.2 241.8 45.2 241.8-47.8-35.4 37.2-130.2 39.6-230.6 8-37.7-11.9-78-18.2-112.6-18.3zm-23.9 69.6c-58.44-.2-99.74 15.6-99.74 70.9 33.48-37.2 122.34-44.3 225.04-18.6 121 30.2 241.8 37.2 241.8-37.2-35.4 37.2-132.1 22.6-230.6 4-48.4-7.5-96.5-19.1-136.5-19.1zm0 74.3c-58.44-.1-99.74 15.8-99.74 71 19.03-21.1 55.52-30.3 102.54-30.8-10.4 10.4-12.9 26.9-7.7 49.4 13.9-34.8 52-51.8 130.3-37.2 122.6 22.8 241.7 37.2 241.7-37.2-35.4 37.2-132.1 18.6-230.6 0-48.4-7.6-96.5-15.1-136.5-15.2z" fill="#ffffff" fill-opacity="1" filter="url(#shadow-1)"></path></g><g class="" transform="translate(256,256)" style=""><g><circle cx="128" cy="128" r="128" fill="#f40a0a" fill-opacity="1"></circle><circle stroke="#f5f5f5" stroke-opacity="1" fill="#f40a0a" fill-opacity="1" stroke-width="18" cx="128" cy="128" r="101"></circle><path fill="#f5f5f5" fill-opacity="1" d="M89.11 76.38L76.38 89.11 115.272 128l-38.89 38.89 12.728 12.73L128 140.728l38.89 38.89 12.73-12.728L140.728 128l38.89-38.89-12.728-12.73L128 115.272z"></path></g></g></svg>