<svg xmlns="http://www.w3.org/2000/svg" viewBox="0 0 512 512" style="height: 512px; width: 512px;"><g class="" transform="translate(0,0)" style=""><path d="M256 117c-65.2 0-124.2 11.6-166.13 29.7-20.95 9.1-37.57 19.8-48.57 31.1S25 200.4 25 212c0 11.6 5.3 22.9 16.3 34.2 11 11.3 27.62 22 48.57 31.1C131.8 295.4 190.8 307 256 307c65.2 0 124.2-11.6 166.1-29.7 21-9.1 37.6-19.8 48.6-31.1S487 223.6 487 212c0-11.6-5.3-22.9-16.3-34.2-11-11.3-27.6-22-48.6-31.1C380.2 128.6 321.2 117 256 117zM25 255.1v50.2c0 6.3 5.3 17.6 16.3 28.9 11 11.3 27.62 22 48.57 31.1C131.8 383.4 190.8 395 256 395c65.2 0 124.2-11.6 166.1-29.7 21-9.1 37.6-19.8 48.6-31.1s16.3-22.6 16.3-28.9v-50.2c-1.1 1.3-2.2 2.5-3.4 3.7-13.3 13.6-31.8 25.3-54.3 35-45 19.5-106 31.2-173.3 31.2-67.3 0-128.3-11.7-173.28-31.2-22.49-9.7-41.01-21.4-54.3-35-1.19-1.2-2.32-2.5-3.42-3.7z" fill="#ffffff" fill-opacity="1"></path></g><g class="" transform="translate(256,256)" style=""><g><circle cx="128" cy="128" r="128" fill="#000" fill-opacity="1"></circle><circle stroke="#f25959" stroke-opacity="1" fill="#000" fill-opacity="1" stroke-width="18" cx="128" cy="128" r="101"></circle><path fill="#f25959" fill-opacity="1" d="M89.11 76.38L76.38 89.11 115.272 128l-38.89 38.89 12.728 12.73L128 140.728l38.89 38.89 12.73-12.728L140.728 128l38.89-38.89-12.728-12.73L128 115.272z"></path></g></g></svg>